<svg xmlns="http://www.w3.org/2000/svg" xmlns:xlink="http://www.w3.org/1999/xlink" width="107.508" height="26.614" viewBox="0 0 107.508 26.614">
  <defs>
    <clipPath id="clip-path">
      <path id="Path_3" data-name="Path 3" d="M0,0H107.508V-26.614H0Z" fill="none"/>
    </clipPath>
  </defs>
  <g id="Group_17" data-name="Group 17" transform="translate(0 26.614)">
    <g id="Group_3" data-name="Group 3" clip-path="url(#clip-path)">
      <g id="Group_1" data-name="Group 1" transform="translate(51.694 -10.552)">
        <path id="Path_1" data-name="Path 1" d="M0,0A4.465,4.465,0,0,1-1.359,3.267,4.356,4.356,0,0,1-4.587,4.633,4.555,4.555,0,0,1-7.84,3.29,4.5,4.5,0,0,1-9.2,0V-1.873A4.389,4.389,0,0,1-7.84-5.118,4.419,4.419,0,0,1-4.587-6.483,4.344,4.344,0,0,1-1.359-5.118,4.389,4.389,0,0,1,0-1.873ZM.943-6.593H.537a.557.557,0,0,0-.5.59v.246c-.117-.136-.238-.272-.367-.4A5.8,5.8,0,0,0-4.587-7.932a5.794,5.794,0,0,0-4.263,1.8,5.817,5.817,0,0,0-1.768,4.263V0A5.849,5.849,0,0,0-8.85,4.286a6.162,6.162,0,0,0,4.263,1.6A6.771,6.771,0,0,0-2.014,5.4,5.039,5.039,0,0,0,0,3.915v.476A4.138,4.138,0,0,1-1.359,7.444,4.353,4.353,0,0,1-4.587,8.807a4.386,4.386,0,0,1-3.361-1.47L-8.961,8.353a5.729,5.729,0,0,0,4.374,1.9,5.811,5.811,0,0,0,4.262-1.8A5.615,5.615,0,0,0,1.441,4.391V-6a.556.556,0,0,0-.5-.59M-27.546-.024A4.455,4.455,0,0,1-28.9,3.234a4.367,4.367,0,0,1-3.231,1.357,4.554,4.554,0,0,1-3.251-1.335,4.473,4.473,0,0,1-1.359-3.28V-1.892a4.377,4.377,0,0,1,1.359-3.236,4.436,4.436,0,0,1,3.251-1.359A4.369,4.369,0,0,1-28.9-5.128a4.381,4.381,0,0,1,1.355,3.236Zm-4.586-7.908A5.807,5.807,0,0,0-36.4-6.141a5.793,5.793,0,0,0-1.766,4.249V-.024A5.829,5.829,0,0,0-36.4,4.248a6.176,6.176,0,0,0,4.263,1.6,6.232,6.232,0,0,0,2.6-.55,5.5,5.5,0,0,0,2.058-1.607l0,2.1H-26.1V-1.892a5.839,5.839,0,0,0-1.768-4.273,5.808,5.808,0,0,0-4.264-1.767m13.909,0a5.822,5.822,0,0,0-4.263,1.791,5.8,5.8,0,0,0-1.765,4.248V5.779h1.441V-1.893a4.412,4.412,0,0,1,1.336-3.235,4.436,4.436,0,0,1,3.251-1.359,4.366,4.366,0,0,1,3.231,1.359,4.377,4.377,0,0,1,1.356,3.235V5.779h1.446V-1.893a5.833,5.833,0,0,0-1.767-4.27,5.809,5.809,0,0,0-4.266-1.769M-41.076-.038a4.466,4.466,0,0,1-1.357,3.266,4.36,4.36,0,0,1-3.23,1.361,4.547,4.547,0,0,1-3.251-1.34A4.488,4.488,0,0,1-50.271-.038V-1.911a4.389,4.389,0,0,1,1.357-3.243,4.428,4.428,0,0,1,3.251-1.362,4.361,4.361,0,0,1,3.23,1.362,4.393,4.393,0,0,1,1.357,3.243Zm-4.587-7.926a5.477,5.477,0,0,0-2.575.625,6.378,6.378,0,0,0-2.033,1.666v-5.558h-1.423V-.038a5.853,5.853,0,0,0,1.767,4.282,6.171,6.171,0,0,0,4.264,1.6,6.146,6.146,0,0,0,4.241-1.6A5.853,5.853,0,0,0-39.634-.038V-1.911A5.85,5.85,0,0,0-41.4-6.193a5.8,5.8,0,0,0-4.262-1.771" fill="#231e21"/>
      </g>
      <g id="Group_2" data-name="Group 2" transform="translate(57.203 -26.614)">
        <path id="Path_2" data-name="Path 2" d="M0,0A.694.694,0,0,0-.7.725V3.37H-3.347a.7.7,0,0,0-.724.7.694.694,0,0,0,.724.7H-.7V7.418a.7.7,0,0,0,.7.726.7.7,0,0,0,.7-.726V4.772H3.347a.7.7,0,0,0,.724-.7.694.694,0,0,0-.724-.7H.7V.725A.7.7,0,0,0,0,0" fill="#231e21"/>
      </g>
    </g>
    <g id="Group_4" data-name="Group 4" transform="translate(56.479 -4.917)">
      <path id="Path_4" data-name="Path 4" d="M0,0V-2.1H.452L1.061-.476,1.668-2.1h.447V0H1.829l.02-1.824L1.167,0H.949L.27-1.824.291,0Z" fill="#231e21"/>
    </g>
    <path id="Path_5" data-name="Path 5" d="M54.892-6.735h1.4v-.283h-1.4Z" fill="#231e21"/>
    <g id="Group_5" data-name="Group 5" transform="translate(55.049 -7.018)">
      <path id="Path_6" data-name="Path 6" d="M0,0V.284H.391V2.1H.7V.284h.392V0Z" fill="#231e21"/>
    </g>
    <path id="Path_7" data-name="Path 7" d="M72.628,0h.364V-26.32h-.364Z" fill="#231e21"/>
    <g id="Group_16" data-name="Group 16" clip-path="url(#clip-path)">
      <g id="Group_6" data-name="Group 6" transform="translate(105.864 -13.316)">
        <path id="Path_8" data-name="Path 8" d="M0,0H.035A.521.521,0,0,1,.556.521V4.785A10.845,10.845,0,0,0,1.644.036,10.892,10.892,0,0,0-9.247-10.856,10.893,10.893,0,0,0-20.139.036a10.859,10.859,0,0,0,1.088,4.749V.521A.521.521,0,0,1-18.53,0h.035a.522.522,0,0,1,.522.521V6.554a10.875,10.875,0,0,0,1.239,1.387V2.384a.521.521,0,0,1,.521-.521h.035a.521.521,0,0,1,.521.521V8.839a10.878,10.878,0,0,0,1.239.784V4.271A.521.521,0,0,1-13.9,3.75h.035a.521.521,0,0,1,.521.521v5.857a10.671,10.671,0,0,0,1.239.418V2.384a.521.521,0,0,1,.521-.521h.035a.521.521,0,0,1,.521.521v8.4a10.742,10.742,0,0,0,1.239.133V.521A.521.521,0,0,1-9.265,0h.035a.521.521,0,0,1,.521.521V10.913A10.742,10.742,0,0,0-7.47,10.78V-1.67a.522.522,0,0,1,.521-.521h.035a.522.522,0,0,1,.522.521V10.546a10.735,10.735,0,0,0,1.239-.418V-3.988a.521.521,0,0,1,.521-.521H-4.6a.521.521,0,0,1,.521.521V9.623a11.057,11.057,0,0,0,1.239-.784V-1.67a.521.521,0,0,1,.521-.521h.035a.521.521,0,0,1,.521.521V7.941A11.029,11.029,0,0,0-.521,6.554V.521A.521.521,0,0,1,0,0" fill="#231e21"/>
      </g>
      <g id="Group_7" data-name="Group 7" transform="translate(105.899 -13.316)">
        <path id="Path_9" data-name="Path 9" d="M0,0H-.035A.521.521,0,0,0-.556.521V6.554A11,11,0,0,0,.521,4.785V.521A.521.521,0,0,0,0,0" fill="#fff"/>
      </g>
      <g id="Group_8" data-name="Group 8" transform="translate(103.583 -15.507)">
        <path id="Path_10" data-name="Path 10" d="M0,0H-.035A.521.521,0,0,0-.556.521V11.029a11.01,11.01,0,0,0,1.077-.9V.521A.521.521,0,0,0,0,0" fill="#fff"/>
      </g>
      <g id="Group_9" data-name="Group 9" transform="translate(101.267 -17.825)">
        <path id="Path_11" data-name="Path 11" d="M0,0H-.035A.521.521,0,0,0-.556.521V14.638a10.9,10.9,0,0,0,1.077-.506V.521A.521.521,0,0,0,0,0" fill="#fff"/>
      </g>
      <g id="Group_10" data-name="Group 10" transform="translate(98.951 -15.507)">
        <path id="Path_12" data-name="Path 12" d="M0,0H-.035A.521.521,0,0,0-.556.521v12.45a10.961,10.961,0,0,0,1.077-.234V.521A.521.521,0,0,0,0,0" fill="#fff"/>
      </g>
      <g id="Group_11" data-name="Group 11" transform="translate(96.634 -13.316)">
        <path id="Path_13" data-name="Path 13" d="M0,0H-.035A.521.521,0,0,0-.556.521V10.913c.178.009.358.014.539.014s.36-.005.538-.014V.521A.521.521,0,0,0,0,0" fill="#fff"/>
      </g>
      <g id="Group_12" data-name="Group 12" transform="translate(94.318 -11.453)">
        <path id="Path_14" data-name="Path 14" d="M0,0H-.035A.521.521,0,0,0-.556.521V8.684a10.9,10.9,0,0,0,1.077.233V.521A.521.521,0,0,0,0,0" fill="#fff"/>
      </g>
      <g id="Group_13" data-name="Group 13" transform="translate(92.002 -9.566)">
        <path id="Path_15" data-name="Path 15" d="M0,0H-.035A.521.521,0,0,0-.556.521V5.873a10.9,10.9,0,0,0,1.077.5V.521A.521.521,0,0,0,0,0" fill="#fff"/>
      </g>
      <g id="Group_14" data-name="Group 14" transform="translate(89.686 -11.453)">
        <path id="Path_16" data-name="Path 16" d="M0,0H-.035A.521.521,0,0,0-.556.521V6.078a10.88,10.88,0,0,0,1.077.9V.521A.521.521,0,0,0,0,0" fill="#fff"/>
      </g>
      <g id="Group_15" data-name="Group 15" transform="translate(87.369 -13.316)">
        <path id="Path_17" data-name="Path 17" d="M0,0H-.035A.521.521,0,0,0-.556.521V4.785A10.863,10.863,0,0,0,.521,6.554V.521A.521.521,0,0,0,0,0" fill="#fff"/>
      </g>
    </g>
  </g>
</svg>
